<svg
	xmlns="http://www.w3.org/2000/svg"
	version="1.1"
	xmlns:xlink="http://www.w3.org/1999/xlink"
	width="512"
	height="512"
	x="0"
	y="0"
	viewBox="0 0 512 512"
	style="enable-background:new 0 0 512 512" xml:space="preserve"
>
	<g fill="#2b2b2b">
		<path d="M452.7 105.3c22.1 0 40 17.9 40 40v221.4c0 22.1-17.9 40-40 40H59.3c-22.1 0-40-17.9-40-40V145.3c0-22.1 17.9-40 40-40zm0-19.3H59.3C26.5 86 0 112.5 0 145.3v221.4C0 399.5 26.5 426 59.3 426h393.4c32.8 0 59.3-26.5 59.3-59.3V145.3c0-32.8-26.5-59.3-59.3-59.3z"></path>
	</g>
</svg>
