<svg
    xmlns="http://www.w3.org/2000/svg"
    version="1.1"
    xmlns:xlink="http://www.w3.org/1999/xlink"
    width="512"
    height="512"
    x="0"
    y="0"
    viewBox="0 0 512 512"
    style="enable-background:new 0 0 512 512"
    xml:space="preserve"
>
    <g fill="#2b2b2b">
        <path d="M509.184 251.106c-3.34-23.621-17.558-43.96-39.008-55.801a15 15 0 0 0-21.249 18.52 15.029 15.029 0 0 1-3.394 16.012c-5.849 5.848-15.366 5.848-21.212 0l-53.032-53.032 10.607-10.607c5.854-5.854 5.857-15.356 0-21.212l-47.729-47.729c-29.309-29.311-76.751-29.313-106.062 0l-10.607 10.607c-5.862 5.862-15.349 5.863-21.212 0a13.253 13.253 0 0 0-.207-.203l-93.756-90.206c-23.401-23.284-61.38-23.245-84.736.112-23.449 23.449-23.45 61.4 0 84.851.068.068.136.136.206.202l93.727 90.181c5.723 5.813 5.801 15.241-.085 21.126l-10.606 10.606c-29.311 29.31-29.314 76.75 0 106.063l47.728 47.729c5.854 5.854 15.356 5.857 21.212 0l10.607-10.607 53.032 53.032c41.034 41.035 107.45 41.038 148.488 0l106.063-106.063c16.824-16.825 24.561-39.998 21.225-63.581zm-387.141-5.361 10.606-10.606c17.588-17.587 17.589-46.05 0-63.638a13.253 13.253 0 0 0-.207-.203L38.709 81.113c-11.628-11.725-11.61-30.632.091-42.334 11.697-11.697 30.728-11.697 42.426 0 .068.068.137.136.207.203l93.756 90.207c17.594 17.471 45.973 17.439 63.524-.113l10.607-10.607c15.808-15.808 40.35-17.379 57.888-4.857L117.186 303.634c-12.507-17.517-10.972-42.061 4.857-57.889zm37.122 100.761-21.212-21.212L328.867 134.38l21.212 21.212-137.882 137.881-53.032 53.033zm307.583-53.034c-17.544 17.545-46.093 17.545-63.638 0-5.857-5.858-15.355-5.858-21.212 0s-5.858 15.355 0 21.212c11.633 11.633 26.415 18.963 42.423 21.215l-63.634 63.634c-29.311 29.31-76.75 29.314-106.063 0l-53.032-53.031 21.212-21.212 31.819 31.819c5.857 5.858 15.355 5.858 21.212 0s5.858-15.355 0-21.212l-31.819-31.819 21.212-21.212 31.819 31.819c5.857 5.857 15.355 5.858 21.212 0s5.858-15.355 0-21.212l-31.819-31.819 21.212-21.212 31.819 31.819c5.859 5.859 15.357 5.856 21.212 0 5.858-5.858 5.858-15.355 0-21.212l-31.819-31.819 21.212-21.212 53.031 53.033c17.56 17.56 46.108 17.529 63.637 0a44.918 44.918 0 0 0 7.896-10.665c2.443 4.565 4.083 9.578 4.839 14.924 2.005 14.157-2.636 28.068-12.731 38.162zM497 59.992h-15v-15c0-8.284-6.716-15-15-15s-15 6.716-15 15v15h-15c-8.284 0-15 6.716-15 15 0 8.284 6.716 15 15 15h15v15c0 8.284 6.716 15 15 15 8.284 0 15-6.716 15-15v-15h15c8.284 0 15-6.716 15-15 0-8.285-6.716-15-15-15zM497 449.981h-15v-15c0-8.284-6.716-15-15-15s-15 6.716-15 15v15h-15c-8.284 0-15 6.716-15 15 0 8.284 6.716 15 15 15h15v17c0 8.285 6.716 15 15 15 8.284 0 15-6.716 15-15v-17h15c8.284 0 15-6.716 15-15 0-8.284-6.716-15-15-15zM75.012 419.982h-15v-15c0-8.284-6.716-15-15-15-8.284 0-15 6.716-15 15v15h-15c-8.284 0-15 6.716-15 15s6.716 15 15 15h15v15c0 8.284 6.716 15 15 15 8.284 0 15-6.716 15-15v-15h15c8.284 0 15-6.716 15-15s-6.716-15-15-15z"></path>
    </g>
</svg>
